<?xml version="1.0" encoding="UTF-8" standalone="no"?>
<!-- Created with Inkscape (http://www.inkscape.org/) -->

<svg
  xml:space="preserve"
  xmlns:dc="http://purl.org/dc/elements/1.1/"
  xmlns:cc="http://creativecommons.org/ns#"
  xmlns:rdf="http://www.w3.org/1999/02/22-rdf-syntax-ns#"
  xmlns:xlink="http://www.w3.org/1999/xlink"
  xmlns:svg="http://www.w3.org/2000/svg"
  xmlns="http://www.w3.org/2000/svg"
  xmlns:sodipodi="http://sodipodi.sourceforge.net/DTD/sodipodi-0.dtd"
  xmlns:inkscape="http://www.inkscape.org/namespaces/inkscape"
  inkscape:export-filename="FlightGear_app_icon.png"
  inkscape:export-xdpi="96"
  inkscape:export-ydpi="96"
  inkscape:version="1.3.2 (091e20e, 2023-11-25)"
  version="1.1"
  id="fgfs-logo"
  height="1024"
  width="1024"
  sodipodi:docname="FlightGear_app_icon.svg"
  viewBox="0 0 270.93333 270.93333">
  <title 
    id="title3935">FlightGear Logo</title>
  <sodipodi:namedview
     id="base"
     pagecolor="#ffffff"
     bordercolor="#000000"
     borderopacity="0.25"
     inkscape:showpageshadow="2"
     inkscape:pageopacity="0.0"
     inkscape:pagecheckerboard="0"
     inkscape:deskcolor="#d1d1d1"
     inkscape:document-units="mm"
     inkscape:zoom="0.62523439"
     inkscape:cx="490.21616"
     inkscape:cy="501.41196"
     inkscape:window-width="1512"
     inkscape:window-height="916"
     inkscape:window-x="0"
     inkscape:window-y="38"
     inkscape:window-maximized="1"
     inkscape:current-layer="layer1" />
  <metadata
    id="metadata7">
    <rdf:RDF>
      <cc:Work
        rdf:about="">
        <dc:format>image/svg+xml</dc:format>
        <dc:type
          rdf:resource="http://purl.org/dc/dcmitype/StillImage" />
        <dc:title>FlightGear Logo</dc:title>
        <dc:date>2014-09-28</dc:date>
        <dc:creator>
          <cc:Agent>
            <dc:title>flightgear.org</dc:title>
          </cc:Agent>
        </dc:creator>
        <dc:rights>
          <cc:Agent>
            <dc:title>flightgear.org</dc:title>
          </cc:Agent>
        </dc:rights>
        <dc:publisher>
          <cc:Agent>
            <dc:title>flightgear.org</dc:title>
          </cc:Agent>
        </dc:publisher>
        <dc:identifier>flightgear.org/Logo</dc:identifier>
        <dc:subject>
          <rdf:Bag>
            <rdf:li>The FlightGear Logo</rdf:li>
          </rdf:Bag>
        </dc:subject>
        <dc:contributor>
          <cc:Agent>
            <dc:title>Original: unknown artist
              Beautified: Gijs de Roy
              Vectorized: Torsten Dreyer</dc:title>
          </cc:Agent>
        </dc:contributor>
        <cc:license
          rdf:resource="http://www.gnu.org/licenses/gpl-2.0.html" />
      </cc:Work>
    </rdf:RDF>
  </metadata><defs
     id="defs1"><inkscape:path-effect
       effect="fillet_chamfer"
       id="path-effect2"
       is_visible="true"
       lpeversion="1"
       nodesatellites_param="F,0,0,1,0,49.2125,0,1 @ F,0,0,1,0,49.2125,0,1 @ F,0,0,1,0,49.2125,0,1 @ F,0,0,1,0,49.2125,0,1"
       radius="186"
       unit="px"
       method="auto"
       mode="F"
       chamfer_steps="1"
       flexible="false"
       use_knot_distance="true"
       apply_no_radius="true"
       apply_with_radius="true"
       only_selected="false"
       hide_knots="false" /><pattern
       inkscape:collect="always"
       xlink:href="#pattern1"
       preserveAspectRatio="xMidYMid"
       id="pattern2"
       patternTransform="matrix(1.7032553,0,0,1.7032553,26.458326,26.458368)" /><pattern
       patternUnits="userSpaceOnUse"
       width="128"
       height="128"
       patternTransform="translate(426.21615,437.41194)"
       preserveAspectRatio="xMidYMid"
       id="pattern1"><g
         id="g1"><g
           id="layer1-9"
           inkscape:label="base"
           style="display:inline"><rect
             y="0"
             x="0"
             height="200"
             width="200"
             style="fill:#faf8fe;fill-opacity:1;stroke:none"
             id="rect4"
             transform="scale(0.64)" /></g><g
           id="layer2"
           inkscape:label="F"
           style="display:inline;opacity:1"><path
             style="display:inline;fill:#427ebf;fill-opacity:1;stroke:none"
             d="m 93.75,168.75 c 0,-41.21924 0,-93.695541 0,-137.5 0,-2.946278 3.303722,-6.25 6.25,-6.25 31.25,0 58.99342,0 84.375,0 2.94628,0 6.23758,3.303748 6.25,6.25 0.0212,5.028186 0.003,10.782217 0,15.625 -0.002,2.946278 -3.30372,6.25 -6.25,6.25 -18.37106,0 -54.6875,0 -54.6875,0 V 81.25 c 0,0 34.64048,0 51.5625,0 2.94628,0 6.25,3.303722 6.25,6.25 0,5.738844 0,10.674082 0,15.625 0,2.94628 -3.30372,6.25 -6.25,6.25 -15.92553,0 -51.5625,0 -51.5625,0 0,0 0,39.97752 0,59.375 0,2.94628 -3.30372,6.25 -6.25,6.25 -8.19113,0 -15.45494,0.0122 -23.4375,0 -2.946275,-0.005 -6.25,-3.30372 -6.25,-6.25 z"
             inkscape:connector-curvature="0"
             sodipodi:nodetypes="sssssssccsssscssss"
             id="path54"
             transform="matrix(0.64,0,0,0.64,-2,0)" /></g><g
           id="layer3"
           inkscape:label="checkers"
           style="display:inline"><g
             style="display:inline"
             id="g6047"><rect
               y="0"
               x="0"
               height="128"
               width="48"
               id="rect6826"
               style="display:inline;fill:#fbfc46;fill-opacity:1;fill-rule:evenodd;stroke:none" /><rect
               y="0"
               x="32"
               height="16"
               width="16"
               id="rect7288"
               style="fill:#fbfc46;fill-opacity:1;fill-rule:evenodd;stroke:none" /><path
               inkscape:connector-curvature="0"
               d="m 32.25,112 v 8 8 h 8 8 v -8 -8 h -8 z m 16,-112 v 8 8 h 8 8 V 8 0 h -8 z m 16,16 v 8 8 h 8 8 v -8 -8 h -8 z m 0,16 h -8 -8 v 8 8 h 8 8 v -8 z m 0,16 v 8 8 h 8 8 v -8 -8 h -8 z m 0,16 h -8 -8 v 8 8 h 8 8 v -8 z m 0,16 v 8 8 h 8 8 v -8 -8 h -8 z m 0,16 h -8 -8 v 8 8 h 8 8 v -8 z m 0,16 v 8 8 h 8 8 v -8 -8 h -8 z m -16,-16 v -8 -8 h -8 -8 v 8 8 h 8 z m 0,-32 v -8 -8 h -8 -8 v 8 8 h 8 z m 0,-32 v -8 -8 h -8 -8 v 8 8 h 8 z"
               style="fill:#000000;fill-opacity:1"
               transform="translate(-32.25)"
               id="path6823" /></g></g></g></pattern><filter
       style="color-interpolation-filters:sRGB;"
       inkscape:label="Drop Shadow"
       id="filter3"
       x="-0.044033332"
       y="-0.044033332"
       width="1.0880667"
       height="1.1064139"><feFlood
         result="flood"
         in="SourceGraphic"
         flood-opacity="0.350000"
         flood-color="rgb(0,0,0)"
         id="feFlood2" /><feGaussianBlur
         result="blur"
         in="SourceGraphic"
         stdDeviation="3.000000"
         id="feGaussianBlur2" /><feOffset
         result="offset"
         in="blur"
         dx="0.000000"
         dy="2.000000"
         id="feOffset2" /><feComposite
         result="comp1"
         operator="in"
         in="flood"
         in2="offset"
         id="feComposite2" /><feComposite
         result="comp2"
         operator="over"
         in="SourceGraphic"
         in2="comp1"
         id="feComposite3" /></filter></defs><g
     inkscape:label="Layer 1"
     inkscape:groupmode="layer"
     id="layer1"><path
       style="fill:url(#pattern2);stroke:none;stroke-width:1.70325;filter:url(#filter3)"
       width="218.01666"
       height="218.01666"
       x="26.458336"
       y="26.458336"
       id="rect1"
       inkscape:path-effect="#path-effect2"
       sodipodi:type="rect"
       d="M 75.670836,26.458336 H 195.2625 a 49.2125,49.2125 45 0 1 49.2125,49.2125 V 195.2625 A 49.2125,49.2125 135 0 1 195.2625,244.475 H 75.670836 a 49.2125,49.2125 45 0 1 -49.2125,-49.2125 V 75.670836 a 49.2125,49.2125 135 0 1 49.2125,-49.2125 z" /></g>
</svg>
